<svg xmlns="http://www.w3.org/2000/svg" shape-rendering="geometricPrecision" text-rendering="geometricPrecision" image-rendering="optimizeQuality" fill-rule="evenodd" clip-rule="evenodd" viewBox="0 0 373 512.14"><g fill-rule="nonzero"><path d="M62.94 92.22v-7.13c0-28.81 28.19-49.57 55.78-40.91 2.84.89 5.59 2.08 8.22 3.57v-4.91c0-16.84 9.6-30.83 22.97-37.9 22.49-11.89 49.85-1.4 59.42 21.61 3.18 7.67 3.25 13.47 3.25 21.43 6.29-3.5 13.43-5.34 20.62-5.34 23.59 0 42.89 19.3 42.89 42.89l.8 198.83c4.3-4.1 8.3-8.07 11.05-10.8l2.65-2.61c8.45-8.45 17.26-13.78 25.83-16.54 9.65-3.1 19-2.94 27.2-.34 3.5 1.09 6.79 2.65 9.8 4.57 3.05 1.95 5.81 4.29 8.21 6.95 2.4 2.67 4.51 5.68 6.21 8.95 1.65 3.16 2.94 6.57 3.77 10.16 2.86 12.03 1.09 22.61-3.41 32.19-4.44 9.44-11.51 17.84-19.35 25.68l-.12.11c-4.66 4.7-10.91 11.39-18.22 19.23-16.79 17.99-39.2 42.01-61.3 62.18.59-4.98.91-10.05.91-15.2 0-5.44-.35-10.81-1.01-16.08 18.26-17.86 36.07-37.04 48.79-50.75 12.32-13.27 36.11-32.3 31.39-52.07-3.07-12.52-14.79-18.05-27.16-13.52-4.92 1.8-10.19 5.2-15.52 10.53-2.63 2.63-9.75 9.74-16.9 16.45-3.55 3.34-7.19 6.62-10.51 9.35-2.24 1.84-11.27 9.37-14.99 7.11l-7.12-3.5a2.208 2.208 0 0 1-1.22-1.83l-2.18-36.56c-.01-36.12-.13-57.85-.24-90.6-.13-34.87-.25-69.78-.25-101.89a20.011 20.011 0 0 0-20-19.99c-8.06 0-15.4 4.9-18.48 12.35-.97 2.34-1.51 4.92-1.51 7.64v132.63c0 1.21-.98 2.18-2.19 2.18h-19.14c-1.2 0-2.18-.97-2.18-2.18V42.91c0-5.31-2.12-10.38-5.87-14.14-12.75-12.68-34.12-3.37-34.12 14.14v175.25c0 1.21-.98 2.19-2.18 2.19h-19.58a2.19 2.19 0 0 1-2.19-2.19V85.09c0-2.69-.54-5.28-1.52-7.63-6.62-16.07-30.01-16.76-36.94 0-.98 2.35-1.52 4.94-1.52 7.63v133.07c0 1.21-.98 2.19-2.18 2.19H65.07a2.19 2.19 0 0 1-2.19-2.19v-88.03c0-2.7-.53-5.28-1.51-7.63-6.82-16.4-30.14-16.41-36.95 0a19.75 19.75 0 0 0-1.52 7.63v146.03c-.97 25.42-.06 52.56-.06 78.18 0 4.46.31 8.85.91 13.14a126.693 126.693 0 0 0-6.8 47.12c-3.21-5.24-6.01-10.75-8.36-16.49C3.05 384.59 0 369.8 0 354.34V130.13c0-31.76 34.25-53.22 62.94-37.91z"/><path fill="#D8453E" d="M143.46 305.64c6.86 0 13.59.68 20.13 1.98 6.66 1.32 13.13 3.3 19.32 5.86 6.28 2.59 12.27 5.81 17.88 9.56 5.69 3.8 10.94 8.11 15.68 12.84l.27.29c4.66 4.7 8.88 9.86 12.58 15.4 3.74 5.58 6.95 11.56 9.55 17.85 2.56 6.18 4.55 12.65 5.87 19.34 1.3 6.54 1.98 13.27 1.98 20.13 0 6.86-.68 13.59-1.98 20.13-1.32 6.69-3.31 13.16-5.87 19.34l-.12.26c-2.58 6.2-5.75 12.09-9.43 17.6-3.78 5.65-8.1 10.91-12.87 15.68-4.77 4.76-10.02 9.07-15.67 12.85-5.58 3.74-11.57 6.95-17.87 9.55a102.94 102.94 0 0 1-19.32 5.86c-6.54 1.3-13.27 1.98-20.13 1.98-6.86 0-13.6-.68-20.13-1.98-6.66-1.31-13.13-3.29-19.33-5.86-6.28-2.59-12.26-5.81-17.88-9.56-5.64-3.77-10.89-8.09-15.66-12.86a104.22 104.22 0 0 1-12.84-15.67 103.105 103.105 0 0 1-15.42-37.22 102.96 102.96 0 0 1-1.98-20.11c0-6.86.68-13.59 1.98-20.12 1.32-6.67 3.3-13.14 5.87-19.34 2.59-6.28 5.81-12.27 9.56-17.89 3.77-5.64 8.08-10.88 12.85-15.65 4.77-4.76 10.02-9.08 15.68-12.85 5.57-3.73 11.55-6.94 17.85-9.54a101.35 101.35 0 0 1 19.32-5.87c6.53-1.3 13.27-1.98 20.13-1.98zm-11.94 35.66 55.26 120.75 2.02-1.7c1.04-.91 2.1-1.92 3.16-2.97 3.2-3.21 6.08-6.72 8.59-10.47 2.47-3.69 4.6-7.64 6.31-11.79 1.67-4.05 2.98-8.35 3.86-12.83.85-4.31 1.3-8.81 1.3-13.43 0-4.63-.45-9.12-1.3-13.43-.88-4.48-2.19-8.78-3.86-12.83a68.761 68.761 0 0 0-6.33-11.82c-2.5-3.74-5.38-7.24-8.57-10.43-3.2-3.2-6.7-6.09-10.44-8.58-3.7-2.48-7.66-4.61-11.81-6.32-11.64-4.8-24.71-6.29-37.15-4.33l-1.04.18zm23.88 135.14-55.26-120.77-2.09 1.77c-11.34 10.31-18.85 22.83-21.85 38-.85 4.31-1.29 8.81-1.29 13.44 0 4.63.45 9.13 1.3 13.44.87 4.47 2.18 8.75 3.85 12.8 1.74 4.19 3.87 8.15 6.34 11.84 2.49 3.73 5.37 7.23 8.55 10.43 3.22 3.2 6.72 6.09 10.48 8.6a67.58 67.58 0 0 0 11.78 6.3c4.07 1.67 8.37 2.98 12.85 3.86 4.31.85 8.8 1.3 13.41 1.3 1.93 0 3.77-.07 5.51-.21 1.95-.15 3.75-.37 5.4-.63l1.02-.17z"/></g></svg>