<svg xmlns="http://www.w3.org/2000/svg" width="25" height="25" shape-rendering="geometricPrecision" text-rendering="geometricPrecision" image-rendering="optimizeQuality" fill-rule="evenodd" clip-rule="evenodd" viewBox="0 0 512 512"><path fill="#F44336" fill-rule="nonzero" d="M256 0c70.69 0 134.69 28.66 181.02 74.99C483.34 121.31 512 185.32 512 256c0 70.69-28.66 134.69-74.98 181.02C390.69 483.34 326.69 512 256 512c-70.68 0-134.69-28.66-181.01-74.98C28.66 390.69 0 326.69 0 256c0-70.68 28.66-134.69 74.99-181.01C121.31 28.66 185.32 0 256 0zm147.61 108.39C365.83 70.62 313.64 47.25 256 47.25c-57.64 0-109.83 23.37-147.61 61.14C70.62 146.17 47.25 198.36 47.25 256c0 57.64 23.37 109.83 61.14 147.61 37.78 37.77 89.97 61.14 147.61 61.14 57.64 0 109.83-23.37 147.61-61.14 37.77-37.78 61.14-89.97 61.14-147.61 0-57.64-23.37-109.83-61.14-147.61z"/><path d="M319.53 309.9c2.48 3.48 7.36-1.12 9.62-2.97 1.98-1.63 4.21-3.65 6.4-5.71 8.16-7.7 17.58-19.77 29.45-20.51 12.52-.94 20.53 10.33 18.47 22.22-1.69 9.68-7.46 14.75-13.96 21.28l-59.14 59.74-2.11 2.28-.13-.13c-15.03 13.66-29.31 19-49.64 19h-39.11c-19.7 0-37.59-8.72-49.74-23.13-9.06-10.71-14.05-23.16-15.41-37.12-.89-9.3-.4-18.72-.4-28.44v-29.25c0-9.4 3.31-17.13 8.42-23.08 14.9-17.33 53.12-12.22 73.93-12.22h46.03c14.51 0 27.78 8.71 33.53 22.02 2.65 6.17 3.05 10.51 3.05 17.52v10.71c-10.81-3.61-19.44-5.76-30.56-6.14-17.81-.22-34.66 6.86-43.15 23.21-3.51 6.49-5.54 15.05-5.89 22.48l6.53.09c.68-10.26 3.47-18.94 10.29-26.88 12.97-15.1 37.34-14.43 54.66-8.58 2.91.91 6.39 1.8 8.86 3.61zm-37.1-66.03v-94.29c0-17.1 22.03-24.66 32.44-10.5 1.75 2.39 2.89 5.07 3.31 7.95.16 1.2.18 2.29.18 3.49v104.65l-5.07 2.07c-9.4-9.4-17.8-12.34-30.86-13.37zm-86.13.14v-93.44c0-.59-.01-1.19.01-1.77.41-15.5 19.41-23.38 30.59-12.16 3.33 3.33 5.28 7.87 5.28 12.59v94.82l-35.88-.04zm-37.36 13.23-5.11-2.01v-75.48c0-16.37 19.58-23.71 30.6-12.73 3.08 3.08 4.96 7.26 5.21 11.58.04.6.04 1.15.04 1.74v63.58c-12.69.77-21.66 4.02-30.74 13.32zm80.55-13.23V120.78c0-4.95 2.02-9.45 5.25-12.68 7.03-7.03 18.3-7.11 25.35-.04 2.49 2.49 4.26 5.74 4.92 9.21.32 1.66.32 3.19.32 4.88v121.86h-35.84z"/></svg>